<?xml version="1.0" encoding="UTF-8"?>
<svg xmlns="http://www.w3.org/2000/svg" xmlns:xlink="http://www.w3.org/1999/xlink" width="192px" height="192px" viewBox="0 0 192 192" version="1.1">
<defs>
<linearGradient id="linear0" gradientUnits="userSpaceOnUse" x1="0" y1="0" x2="1" y2="1" gradientTransform="matrix(192,0,0,192,0,0)">
<stop offset="0" style="stop-color:rgb(48.627451%,36.078431%,100%);stop-opacity:1;"/>
<stop offset="1" style="stop-color:rgb(9.803922%,89.019608%,64.313725%);stop-opacity:1;"/>
</linearGradient>
<linearGradient id="linear1" gradientUnits="userSpaceOnUse" x1="0" y1="0" x2="1" y2="0" gradientTransform="matrix(328,0,0,168.8125,96,214.583333)">
<stop offset="0" style="stop-color:rgb(100%,33.333333%,46.666667%);stop-opacity:1;"/>
<stop offset="0.5" style="stop-color:rgb(100%,82.352941%,29.019608%);stop-opacity:1;"/>
<stop offset="1" style="stop-color:rgb(9.803922%,89.019608%,64.313725%);stop-opacity:1;"/>
</linearGradient>
</defs>
<g id="surface1">
<path style=" stroke:none;fill-rule:nonzero;fill:url(#linear0);" d="M 36 0 L 156 0 C 175.882812 0 192 16.117188 192 36 L 192 156 C 192 175.882812 175.882812 192 156 192 L 36 192 C 16.117188 192 0 175.882812 0 156 L 0 36 C 0 16.117188 16.117188 0 36 0 Z M 36 0 "/>
<path style="fill:none;stroke-width:48;stroke-linecap:round;stroke-linejoin:round;stroke:url(#linear1);stroke-miterlimit:4;" d="M 120 360 C 140 240 220 200 260 280 C 300 360 360 360 400 280 " transform="matrix(0.375,0,0,0.375,0,0)"/>
<path style=" stroke:none;fill-rule:nonzero;fill:rgb(3.921569%,5.098039%,10.980392%);fill-opacity:1;" d="M 158.25 103.5 C 158.25 99.773438 155.226562 96.75 151.5 96.75 C 147.773438 96.75 144.75 99.773438 144.75 103.5 C 144.75 107.226562 147.773438 110.25 151.5 110.25 C 155.226562 110.25 158.25 107.226562 158.25 103.5 Z M 158.25 103.5 "/>
<path style=" stroke:none;fill-rule:nonzero;fill:rgb(3.921569%,5.098039%,10.980392%);fill-opacity:1;" d="M 149.25 94.5 C 149.25 91.601562 146.898438 89.25 144 89.25 C 141.101562 89.25 138.75 91.601562 138.75 94.5 C 138.75 97.398438 141.101562 99.75 144 99.75 C 146.898438 99.75 149.25 97.398438 149.25 94.5 Z M 149.25 94.5 "/>
</g>
</svg>
